<?xml version="1.0" encoding="UTF-8" ?>
<!DOCTYPE svg PUBLIC "-//W3C//DTD SVG 1.1//EN" "http://www.w3.org/Graphics/SVG/1.1/DTD/svg11.dtd">
<svg width="951pt" height="330pt" viewBox="0 0 951 330" version="1.1" xmlns="http://www.w3.org/2000/svg">
<path fill="#efede7" stroke="#efede7" stroke-width="0.09375" opacity="1.00" d=" M 533.46 39.47 C 536.86 38.43 540.49 38.89 544.00 38.80 C 550.34 38.98 556.69 38.55 563.02 38.97 C 565.75 38.91 568.07 41.25 568.03 43.98 C 568.42 51.65 568.02 59.34 568.21 67.03 C 568.21 70.21 568.38 74.51 564.82 75.93 C 560.61 76.84 556.26 76.27 552.00 76.38 C 546.66 76.28 541.31 76.61 535.98 76.29 C 533.17 76.34 530.62 73.84 530.69 71.02 C 530.41 63.35 530.74 55.67 530.56 47.99 C 530.58 44.99 530.27 41.05 533.46 39.47 M 542.22 50.34 C 542.10 55.16 542.11 59.99 542.18 64.82 C 547.01 64.88 551.83 64.89 556.66 64.77 C 556.63 59.97 556.63 55.17 556.63 50.37 C 551.82 50.36 547.02 50.36 542.22 50.34 Z" />
<path fill="#efede7" stroke="#efede7" stroke-width="0.09375" opacity="1.00" d=" M 572.46 39.46 C 575.87 38.43 579.49 38.89 583.01 38.81 C 589.34 38.98 595.69 38.55 602.02 38.97 C 604.75 38.91 607.08 41.26 607.04 43.98 C 607.43 51.65 607.03 59.35 607.22 67.03 C 607.23 70.21 607.38 74.52 603.81 75.93 C 600.60 76.71 597.26 76.35 594.00 76.41 C 587.65 76.25 581.31 76.62 574.98 76.29 C 572.16 76.34 569.64 73.84 569.71 71.02 C 569.41 63.35 569.75 55.67 569.57 47.99 C 569.59 44.99 569.28 41.06 572.46 39.46 M 581.23 50.34 C 581.12 55.16 581.12 59.99 581.19 64.81 C 586.01 64.88 590.84 64.89 595.66 64.77 C 595.64 59.97 595.64 55.17 595.63 50.37 C 590.83 50.36 586.03 50.36 581.23 50.34 Z" />
<path fill="#efede7" stroke="#efede7" stroke-width="0.09375" opacity="1.00" d=" M 611.46 39.47 C 615.19 38.37 619.16 38.92 623.00 38.81 C 629.30 39.02 635.63 38.42 641.92 39.09 C 644.77 39.36 646.27 42.33 646.14 44.94 C 646.32 52.64 646.12 60.34 646.22 68.04 C 646.29 70.96 646.05 74.75 642.81 75.93 C 639.60 76.71 636.26 76.35 633.00 76.41 C 626.66 76.24 620.31 76.62 613.98 76.29 C 611.17 76.33 608.65 73.84 608.72 71.03 C 608.42 63.35 608.76 55.67 608.58 47.99 C 608.61 45.00 608.28 41.06 611.46 39.47 M 620.24 50.34 C 620.13 55.16 620.14 59.98 620.20 64.81 C 625.02 64.88 629.84 64.89 634.67 64.78 C 634.65 59.97 634.65 55.17 634.64 50.36 C 629.84 50.36 625.04 50.36 620.24 50.34 Z" />
<path fill="#a09f9b" stroke="#a09f9b" stroke-width="0.09375" opacity="1.00" d=" M 66.25 69.75 C 66.45 59.74 65.87 49.71 66.58 39.71 C 66.84 49.54 66.30 59.37 66.87 69.18 C 70.57 69.25 74.27 69.33 77.97 69.32 C 80.65 69.32 83.33 69.28 86.01 69.18 C 88.58 69.08 91.15 68.96 93.73 68.82 C 93.97 59.13 93.60 49.44 93.93 39.76 C 95.63 39.69 97.34 39.63 99.05 39.58 C 98.95 49.66 99.04 59.74 99.04 69.82 C 88.11 69.63 77.18 69.77 66.25 69.75 Z" />
<path fill="#e5e2dd" stroke="#e5e2dd" stroke-width="0.09375" opacity="1.00" d=" M 66.58 39.71 C 70.16 39.72 73.74 39.72 77.32 39.71 C 78.33 49.55 77.60 59.45 77.97 69.32 C 74.27 69.33 70.57 69.25 66.87 69.18 C 66.30 59.37 66.84 49.54 66.58 39.71 Z" />
<path fill="#cdcbc6" stroke="#cdcbc6" stroke-width="0.09375" opacity="1.00" d=" M 77.32 39.71 C 80.20 39.73 83.08 39.73 85.96 39.72 C 85.88 49.54 85.83 59.36 86.01 69.18 C 83.33 69.28 80.65 69.32 77.97 69.32 C 77.60 59.45 78.33 49.55 77.32 39.71 Z" />
<path fill="#b6b5b0" stroke="#b6b5b0" stroke-width="0.09375" opacity="1.00" d=" M 85.96 39.72 C 88.62 39.75 91.27 39.74 93.93 39.76 C 93.60 49.44 93.97 59.13 93.73 68.82 C 91.15 68.96 88.58 69.08 86.01 69.18 C 85.83 59.36 85.88 49.54 85.96 39.72 Z" />
<path fill="#f3f1ec" stroke="#f3f1ec" stroke-width="0.09375" opacity="1.00" d=" M 99.05 39.58 L 99.63 40.12 C 110.30 49.90 120.74 59.97 131.98 69.10 L 132.02 69.87 C 132.31 97.70 132.11 125.53 132.08 153.36 C 121.11 153.51 110.13 153.61 99.16 153.30 C 99.09 125.48 99.16 97.65 99.04 69.82 C 99.04 59.74 98.95 49.66 99.05 39.58 Z" />
<path fill="#c0beb9" stroke="#c0beb9" stroke-width="0.09375" opacity="1.00" d=" M 99.63 40.12 C 103.62 39.61 107.65 39.60 111.66 39.79 C 118.67 50.26 128.85 58.22 135.31 69.07 C 134.48 69.08 132.82 69.09 131.98 69.10 C 120.74 59.97 110.30 49.90 99.63 40.12 Z" />
<path fill="#d8d6d1" stroke="#d8d6d1" stroke-width="0.09375" opacity="1.00" d=" M 111.66 39.79 C 114.34 39.77 117.02 39.79 119.70 39.80 C 126.54 50.27 136.54 58.23 143.24 68.78 C 140.60 68.92 137.96 69.03 135.31 69.07 C 128.85 58.22 118.67 50.26 111.66 39.79 Z" />
<path fill="#efede7" stroke="#efede7" stroke-width="0.09375" opacity="1.00" d=" M 119.70 39.80 C 134.71 39.74 149.73 39.59 164.75 39.88 C 164.71 49.80 164.79 59.72 164.69 69.64 C 153.80 69.79 142.90 69.28 132.02 69.87 L 131.98 69.10 C 132.82 69.09 134.48 69.08 135.31 69.07 C 137.96 69.03 140.60 68.92 143.24 68.78 C 136.54 58.23 126.54 50.27 119.70 39.80 Z" />
<path fill="#efede7" stroke="#efede7" stroke-width="0.09375" opacity="1.00" d=" M 209.94 39.78 C 221.91 39.83 233.91 39.47 245.87 39.92 C 247.75 42.09 248.25 45.10 249.36 47.69 C 259.76 75.61 270.39 103.44 280.85 131.34 C 283.52 138.75 286.71 145.99 289.02 153.53 C 277.59 153.46 266.17 153.67 254.74 153.42 C 246.00 129.94 237.04 106.55 228.41 83.03 C 219.31 106.36 210.79 129.93 202.00 153.38 C 190.58 153.50 179.16 153.62 167.76 153.31 C 181.51 115.36 195.88 77.62 209.94 39.78 Z" />
<path fill="#efede7" stroke="#efede7" stroke-width="0.09375" opacity="1.00" d=" M 326.30 40.17 C 328.47 39.54 330.76 39.74 333.00 39.69 C 352.61 39.87 372.24 39.58 391.85 39.83 C 391.86 49.80 391.93 59.77 391.81 69.74 C 369.98 69.87 348.15 69.46 326.33 69.94 C 326.36 73.28 326.35 76.61 326.31 79.94 C 337.88 80.41 349.46 79.97 361.03 80.13 C 364.26 79.83 366.21 82.78 368.44 84.59 C 377.50 93.32 387.37 101.21 396.16 110.19 C 396.79 114.08 396.64 118.07 396.36 121.99 C 396.27 123.91 394.58 125.12 393.38 126.40 C 384.43 134.45 375.47 142.49 366.63 150.66 C 364.23 153.55 360.47 153.75 357.00 153.53 C 337.34 153.33 317.68 153.65 298.02 153.36 C 298.03 143.37 297.85 133.38 298.14 123.39 C 319.88 123.51 341.63 123.57 363.37 123.37 C 363.55 118.96 363.53 114.54 363.35 110.13 C 352.89 110.14 342.43 110.10 331.98 110.19 C 329.42 110.12 326.45 110.47 324.55 108.37 C 315.35 99.97 306.14 91.58 296.91 83.19 C 292.39 80.39 293.40 74.64 293.85 70.15 C 294.62 68.57 296.05 67.46 297.28 66.26 C 304.17 60.16 310.85 53.84 317.69 47.69 C 320.56 45.19 323.02 42.16 326.30 40.17 Z" />
<path fill="#efede7" stroke="#efede7" stroke-width="0.09375" opacity="1.00" d=" M 411.03 39.81 C 422.01 39.68 432.99 39.68 443.96 39.81 C 444.10 52.91 443.87 66.00 444.07 79.09 C 456.72 66.75 468.84 53.88 481.39 41.43 C 483.25 39.15 486.40 39.84 488.99 39.68 C 499.81 39.89 510.63 39.49 521.44 39.92 C 513.98 48.28 505.43 55.59 497.63 63.63 C 486.69 74.86 475.02 85.38 464.17 96.70 C 478.86 110.73 493.02 125.28 507.70 139.31 C 512.28 143.94 517.18 148.26 521.37 153.26 C 511.92 153.74 502.45 153.33 493.00 153.50 C 489.72 153.44 486.40 153.78 483.17 153.11 C 479.98 150.92 477.76 147.66 475.01 144.99 C 464.71 134.66 454.39 124.36 444.09 114.04 C 443.86 127.14 444.09 140.25 443.98 153.36 C 432.99 153.55 422.00 153.55 411.02 153.36 C 410.99 115.51 410.97 77.66 411.03 39.81 Z" />
<path fill="#efede7" stroke="#efede7" stroke-width="0.09375" opacity="1.00" d=" M 533.46 78.48 C 537.52 77.34 541.83 77.96 546.00 77.84 C 551.97 78.02 557.97 77.45 563.92 78.11 C 567.21 78.46 568.36 82.08 568.16 84.94 C 568.10 93.30 568.36 101.67 568.04 110.02 C 568.10 113.19 565.14 115.67 562.05 115.36 C 553.69 115.45 545.32 115.43 536.95 115.38 C 533.84 115.70 530.60 113.30 530.69 110.02 C 530.41 102.35 530.74 94.67 530.56 86.99 C 530.59 83.99 530.26 80.05 533.46 78.48 M 542.23 89.35 C 542.10 94.17 542.11 99.00 542.18 103.82 C 547.00 103.89 551.83 103.90 556.66 103.78 C 556.63 98.98 556.63 94.18 556.63 89.37 C 551.82 89.37 547.02 89.37 542.23 89.35 Z" />
<path fill="#efede7" stroke="#efede7" stroke-width="0.09375" opacity="1.00" d=" M 572.46 78.48 C 576.52 77.34 580.82 77.96 585.00 77.84 C 590.97 78.02 596.97 77.45 602.92 78.11 C 606.21 78.46 607.37 82.09 607.18 84.94 C 607.12 93.29 607.37 101.67 607.05 110.02 C 607.11 113.19 604.14 115.66 601.05 115.36 C 592.69 115.46 584.32 115.43 575.95 115.38 C 572.83 115.69 569.61 113.30 569.71 110.02 C 569.41 102.35 569.75 94.67 569.57 86.99 C 569.60 84.00 569.28 80.06 572.46 78.48 M 581.23 89.35 C 581.12 94.17 581.12 98.99 581.19 103.82 C 586.01 103.89 590.84 103.90 595.66 103.78 C 595.64 98.98 595.64 94.18 595.63 89.37 C 590.83 89.37 586.03 89.37 581.23 89.35 Z" />
<path fill="#efede7" stroke="#efede7" stroke-width="0.09375" opacity="1.00" d=" M 611.46 78.48 C 615.52 77.34 619.82 77.96 624.00 77.84 C 629.96 78.02 635.97 77.46 641.92 78.11 C 645.25 78.41 646.37 82.09 646.19 84.94 C 646.13 93.31 646.38 101.69 646.07 110.06 C 646.17 113.25 643.12 115.63 640.06 115.36 C 631.69 115.46 623.32 115.43 614.95 115.38 C 611.84 115.69 608.62 113.29 608.72 110.02 C 608.42 102.35 608.76 94.67 608.58 86.99 C 608.61 84.00 608.28 80.07 611.46 78.48 M 620.24 89.35 C 620.13 94.17 620.14 98.99 620.20 103.82 C 625.02 103.89 629.84 103.90 634.67 103.78 C 634.65 98.98 634.65 94.18 634.64 89.37 C 629.84 89.37 625.04 89.37 620.24 89.35 Z" />
<path fill="#efede7" stroke="#efede7" stroke-width="0.09375" opacity="1.00" d=" M 533.46 117.48 C 537.53 116.37 541.82 116.97 546.00 116.85 C 551.97 117.03 557.97 116.46 563.92 117.12 C 567.21 117.47 568.36 121.09 568.16 123.93 C 568.11 132.31 568.35 140.69 568.04 149.06 C 568.16 152.25 565.11 154.64 562.05 154.37 C 553.69 154.47 545.32 154.44 536.95 154.39 C 533.83 154.71 530.59 152.30 530.69 149.02 C 530.41 141.35 530.74 133.67 530.56 125.99 C 530.59 123.00 530.27 119.06 533.46 117.48 M 542.23 128.36 C 542.10 133.18 542.11 138.01 542.17 142.83 C 547.00 142.91 551.83 142.91 556.66 142.79 C 556.63 137.99 556.63 133.18 556.62 128.38 C 551.82 128.38 547.02 128.39 542.23 128.36 Z" />
<path fill="#efede7" stroke="#efede7" stroke-width="0.09375" opacity="1.00" d=" M 572.46 117.48 C 576.53 116.36 580.83 116.97 585.00 116.85 C 590.97 117.03 596.97 116.47 602.92 117.12 C 606.21 117.46 607.37 121.09 607.18 123.94 C 607.12 132.31 607.36 140.69 607.05 149.06 C 607.16 152.25 604.11 154.65 601.05 154.37 C 592.69 154.46 584.32 154.44 575.95 154.39 C 572.83 154.70 569.61 152.30 569.71 149.02 C 569.41 141.35 569.75 133.67 569.57 125.99 C 569.60 123.00 569.27 119.06 572.46 117.48 M 581.24 128.36 C 581.12 133.18 581.12 138.00 581.19 142.83 C 586.01 142.91 590.84 142.91 595.66 142.79 C 595.64 137.99 595.64 133.18 595.63 128.38 C 590.83 128.38 586.03 128.39 581.24 128.36 Z" />
<path fill="#efede7" stroke="#efede7" stroke-width="0.09375" opacity="1.00" d=" M 611.45 117.49 C 615.52 116.36 619.82 116.97 624.00 116.85 C 629.97 117.03 635.97 116.47 641.91 117.11 C 645.24 117.41 646.38 121.09 646.19 123.94 C 646.13 132.31 646.38 140.69 646.07 149.06 C 646.17 152.25 643.12 154.65 640.05 154.37 C 631.69 154.46 623.32 154.44 614.95 154.38 C 611.84 154.70 608.62 152.29 608.72 149.02 C 608.42 141.35 608.76 133.67 608.58 125.99 C 608.61 123.01 608.29 119.07 611.45 117.49 M 620.24 128.36 C 620.13 133.18 620.14 138.00 620.19 142.82 C 625.02 142.91 629.84 142.91 634.67 142.79 C 634.65 137.99 634.65 133.18 634.63 128.38 C 629.83 128.38 625.04 128.39 620.24 128.36 Z" />
<path fill="#a7a5a0" stroke="#a7a5a0" stroke-width="0.09375" opacity="1.00" d=" M 600.84 177.81 C 610.33 170.54 622.00 166.13 633.93 165.36 C 650.63 164.23 667.82 170.17 679.94 181.77 C 673.07 188.89 666.08 195.89 658.91 202.70 C 652.85 198.26 645.66 194.92 638.00 195.18 C 627.78 195.11 617.56 200.35 612.05 209.03 C 608.26 214.85 606.86 222.12 608.15 228.94 C 609.37 236.27 613.96 242.76 620.00 246.96 C 627.39 252.16 637.05 253.67 645.79 251.67 C 654.23 249.58 661.89 243.86 665.58 235.89 C 658.36 235.38 651.11 235.74 643.88 235.68 C 643.29 227.85 643.50 220.00 643.75 212.16 C 649.84 212.22 655.95 211.92 662.04 212.20 C 664.60 212.18 666.68 213.83 668.68 215.22 C 678.00 222.12 687.61 228.62 697.02 235.38 C 694.68 248.00 687.43 259.43 677.85 267.85 C 667.44 276.94 653.77 282.05 640.00 282.61 C 621.04 283.41 602.00 274.59 590.30 259.66 C 581.41 248.59 576.83 234.15 577.85 219.97 C 578.93 203.47 587.62 187.71 600.84 177.81 Z" />
<path fill="#949390" stroke="#949390" stroke-width="0.09375" opacity="1.00" d=" M 66.40 166.56 C 66.73 166.76 67.40 167.16 67.74 167.37 C 69.05 168.99 70.13 170.79 71.20 172.58 C 69.69 174.20 67.55 175.65 67.33 178.05 C 66.49 184.65 67.00 191.34 66.81 197.98 C 66.71 203.99 66.69 209.99 66.71 216.00 C 66.70 221.00 66.69 226.00 66.70 231.00 C 66.68 236.33 66.68 241.66 66.69 246.99 C 66.67 252.33 66.69 257.67 66.68 263.01 C 66.65 269.02 66.71 275.03 66.56 281.04 C 65.88 274.05 66.43 267.02 66.25 260.01 C 66.36 228.86 66.03 197.70 66.40 166.56 Z" />
<path fill="#f3f1ed" stroke="#f3f1ed" stroke-width="0.09375" opacity="1.00" d=" M 67.74 167.37 C 78.77 166.56 89.87 167.16 100.93 167.03 C 110.78 183.35 120.21 199.93 130.06 216.26 C 135.31 225.88 141.87 234.76 146.42 244.75 C 140.82 253.70 135.93 263.09 130.07 271.88 C 119.53 255.12 109.86 237.82 99.59 220.89 C 98.37 218.60 97.07 216.36 95.73 214.14 C 92.35 208.39 89.01 202.61 85.48 196.95 C 80.76 188.80 76.11 180.61 71.20 172.58 C 70.13 170.79 69.05 168.99 67.74 167.37 Z" />
<path fill="#a09e9a" stroke="#a09e9a" stroke-width="0.09375" opacity="1.00" d=" M 148.89 184.77 C 152.59 178.67 155.19 171.58 160.60 166.75 L 160.62 167.72 C 160.57 174.60 160.20 181.48 159.95 188.36 C 155.84 188.99 152.24 186.84 148.89 184.77 Z" />
<path fill="#f5f3f0" stroke="#f5f3f0" stroke-width="0.09375" opacity="1.00" d=" M 160.60 166.75 C 171.49 167.44 182.43 166.52 193.32 167.27 C 192.55 173.16 193.08 179.09 192.94 185.00 C 192.80 198.61 193.07 212.22 192.76 225.83 C 182.08 226.27 171.40 225.84 160.73 226.03 C 160.71 224.25 160.69 222.48 160.76 220.71 C 161.03 216.46 161.12 212.21 161.06 207.96 C 160.81 194.55 161.14 181.13 160.62 167.72 L 160.60 166.75 Z" />
<path fill="#f1efea" stroke="#f1efea" stroke-width="0.09375" opacity="1.00" d=" M 193.32 167.27 L 193.47 166.32 C 194.10 170.85 193.82 175.44 193.83 180.00 C 193.81 213.60 193.74 247.20 193.73 280.80 C 182.77 280.92 171.80 280.85 160.83 280.85 C 160.62 262.58 160.74 244.30 160.73 226.03 C 171.40 225.84 182.08 226.27 192.76 225.83 C 193.07 212.22 192.80 198.61 192.94 185.00 C 193.08 179.09 192.55 173.16 193.32 167.27 Z" />
<path fill="#a7a5a0" stroke="#a7a5a0" stroke-width="0.09375" opacity="1.00" d=" M 247.21 167.24 C 259.08 166.68 271.02 167.05 282.91 167.11 C 297.36 204.91 311.43 242.87 325.86 280.68 C 314.36 280.71 302.87 280.82 291.37 280.62 C 284.69 262.96 278.11 245.25 271.43 227.59 C 269.25 222.00 267.58 216.19 264.70 210.90 C 255.90 234.10 247.29 257.38 238.62 280.64 C 227.13 280.81 215.64 280.71 204.14 280.69 C 217.31 245.67 230.33 210.59 243.38 175.53 C 244.60 172.78 244.98 169.36 247.21 167.24 Z" />
<path fill="#a7a5a0" stroke="#a7a5a0" stroke-width="0.09375" opacity="1.00" d=" M 336.73 167.05 C 347.72 167.02 358.73 166.81 369.72 167.17 C 379.89 182.69 390.26 198.07 400.45 213.58 C 404.31 219.16 407.70 225.09 412.01 230.35 C 412.65 209.29 412.13 188.19 412.25 167.11 C 423.22 166.89 434.19 166.98 445.16 167.05 C 445.46 195.70 445.20 224.35 445.29 253.00 C 445.17 262.24 445.56 271.49 445.05 280.72 C 434.14 280.67 423.23 280.84 412.32 280.63 C 400.94 263.67 389.69 246.62 378.35 229.63 C 375.50 225.30 372.74 220.89 369.42 216.90 C 369.25 238.17 369.76 259.47 369.18 280.73 C 358.39 280.71 347.60 280.72 336.82 280.73 C 336.27 271.83 336.70 262.91 336.57 254.00 C 336.68 225.02 336.36 196.03 336.73 167.05 Z" />
<path fill="#a7a5a0" stroke="#a7a5a0" stroke-width="0.09375" opacity="1.00" d=" M 498.21 167.11 C 510.38 166.95 522.56 166.83 534.73 167.18 C 543.05 189.24 551.34 211.31 559.69 233.36 C 565.43 249.16 571.90 264.71 577.20 280.66 C 565.87 280.78 554.54 280.72 543.21 280.69 C 534.13 257.48 525.84 233.95 516.69 210.76 C 511.56 222.59 507.61 234.90 502.91 246.91 C 498.78 258.15 494.36 269.28 490.50 280.62 C 479.02 280.84 467.53 280.68 456.04 280.71 C 469.83 242.75 484.27 205.02 498.21 167.11 Z" />
<path fill="#a7a5a0" stroke="#a7a5a0" stroke-width="0.09375" opacity="1.00" d=" M 738.34 167.40 C 740.50 166.82 742.77 166.97 745.00 166.93 C 762.65 167.11 780.31 166.90 797.96 167.04 C 798.02 176.98 798.07 186.91 797.92 196.85 C 778.03 196.99 758.13 196.60 738.25 197.03 C 738.24 200.41 738.24 203.80 738.26 207.19 C 756.17 207.73 774.10 207.33 792.03 207.37 C 792.67 217.30 792.37 227.27 792.22 237.21 C 774.25 237.55 756.28 237.28 738.32 237.33 C 738.22 241.81 738.22 246.30 738.29 250.78 C 758.18 251.02 778.06 250.67 797.95 250.94 C 798.02 260.87 798.11 270.81 797.89 280.75 C 778.91 280.68 759.94 280.73 740.97 280.73 C 738.85 280.91 737.09 279.73 735.62 278.36 C 726.16 269.81 716.69 261.25 707.10 252.83 C 705.18 251.54 705.24 249.13 705.22 247.08 C 705.31 232.03 705.34 216.99 705.21 201.95 C 705.25 199.58 705.03 196.77 707.16 195.17 C 715.23 187.91 723.31 180.66 731.30 173.31 C 733.57 171.26 735.65 168.92 738.34 167.40 Z" />
<path fill="#a7a5a0" stroke="#a7a5a0" stroke-width="0.09375" opacity="1.00" d=" M 807.84 167.05 C 823.22 166.91 838.61 167.06 854.00 166.98 C 861.08 167.01 868.31 166.90 875.17 168.88 C 885.40 171.96 894.45 178.96 899.76 188.26 C 906.90 200.40 907.37 216.24 900.70 228.68 C 895.09 239.89 884.14 247.87 872.00 250.62 C 880.55 261.04 890.33 270.38 898.96 280.74 C 885.96 280.67 872.96 280.75 859.96 280.73 C 856.93 281.17 855.33 278.31 853.63 276.36 C 847.02 268.02 840.01 260.01 833.36 251.70 C 837.08 241.65 841.11 231.72 845.08 221.77 C 851.63 221.36 858.22 222.01 864.77 221.45 C 872.58 220.82 877.79 211.49 874.55 204.44 C 872.56 199.50 867.25 196.68 862.05 196.90 C 843.99 196.75 825.93 196.94 807.88 196.84 C 807.58 186.91 807.64 176.98 807.84 167.05 Z" />
<path fill="#b2b1ac" stroke="#b2b1ac" stroke-width="0.09375" opacity="1.00" d=" M 159.95 188.36 C 160.20 181.48 160.57 174.60 160.62 167.72 C 161.14 181.13 160.81 194.55 161.06 207.96 C 159.75 209.67 158.46 211.39 157.20 213.13 C 150.84 209.74 144.85 205.68 138.29 202.67 C 141.61 196.58 145.20 190.64 148.89 184.77 C 152.24 186.84 155.84 188.99 159.95 188.36 Z" />
<path fill="#a5a4a0" stroke="#a5a4a0" stroke-width="0.09375" opacity="1.00" d=" M 71.20 172.58 C 76.11 180.61 80.76 188.80 85.48 196.95 C 79.34 198.23 73.05 198.28 66.81 197.98 C 67.00 191.34 66.49 184.65 67.33 178.05 C 67.55 175.65 69.69 174.20 71.20 172.58 Z" />
<path fill="#b7b5b0" stroke="#b7b5b0" stroke-width="0.09375" opacity="1.00" d=" M 66.81 197.98 C 73.05 198.28 79.34 198.23 85.48 196.95 C 89.01 202.61 92.35 208.39 95.73 214.14 C 92.97 215.27 90.07 216.21 87.05 216.15 C 80.27 216.11 73.49 215.91 66.71 216.00 C 66.69 209.99 66.71 203.99 66.81 197.98 Z" />
<path fill="#c6c4c0" stroke="#c6c4c0" stroke-width="0.09375" opacity="1.00" d=" M 138.29 202.67 C 144.85 205.68 150.84 209.74 157.20 213.13 C 158.46 211.39 159.75 209.67 161.06 207.96 C 161.12 212.21 161.03 216.46 160.76 220.71 C 155.87 228.65 151.23 236.76 146.42 244.75 C 141.87 234.76 135.31 225.88 130.06 216.26 C 132.81 211.73 135.48 207.16 138.29 202.67 Z" />
<path fill="#c5c3be" stroke="#c5c3be" stroke-width="0.09375" opacity="1.00" d=" M 95.73 214.14 C 97.07 216.36 98.37 218.60 99.59 220.89 C 99.68 224.26 99.37 227.64 99.26 231.01 C 88.41 231.04 77.55 231.04 66.70 231.00 C 66.69 226.00 66.70 221.00 66.71 216.00 C 73.49 215.91 80.27 216.11 87.05 216.15 C 90.07 216.21 92.97 215.27 95.73 214.14 Z" />
<path fill="#d1cfca" stroke="#d1cfca" stroke-width="0.09375" opacity="1.00" d=" M 66.70 231.00 C 77.55 231.04 88.41 231.04 99.26 231.01 C 99.48 236.34 99.47 241.66 99.30 246.99 C 88.43 246.97 77.56 246.97 66.69 246.99 C 66.68 241.66 66.68 236.33 66.70 231.00 Z" />
<path fill="#dedbd6" stroke="#dedbd6" stroke-width="0.09375" opacity="1.00" d=" M 66.69 246.99 C 77.56 246.97 88.43 246.97 99.30 246.99 C 99.44 252.33 99.46 257.68 99.29 263.02 C 88.42 263.07 77.55 263.07 66.68 263.01 C 66.69 257.67 66.67 252.33 66.69 246.99 Z" />
<path fill="#ebe9e3" stroke="#ebe9e3" stroke-width="0.09375" opacity="1.00" d=" M 66.68 263.01 C 77.55 263.07 88.42 263.07 99.29 263.02 C 99.42 268.97 99.49 274.92 99.21 280.86 C 88.33 280.99 77.44 280.70 66.56 281.04 C 66.71 275.03 66.65 269.02 66.68 263.01 Z" />
</svg>
